<svg width="140" height="51" viewBox="0 0 140 51" fill="none" xmlns="http://www.w3.org/2000/svg">
<path d="M140 2.77249C133.209 0.136343 124.446 -0.511253 116.045 0.372104C99.9632 2.06322 87.3983 9.25541 79.3326 20.3183C76.4554 17.3151 74.7157 13.5369 74.6695 9.42054C72.4969 11.5374 70.9252 14.0801 70.131 16.8694C69.3367 14.0791 67.7651 11.5374 65.5925 9.42054C65.5463 13.6085 63.7505 17.4523 60.7794 20.4804C52.7194 9.32604 40.1153 2.07117 23.9546 0.372104C15.5528 -0.511253 6.78953 0.135349 0 2.77249C15.4799 4.46061 19.7214 11.3444 17.1272 18.28C29.3644 15.6598 41.3788 24.3929 37.4566 34.5694C40.7092 33.4602 45.3808 33.1548 49.6545 33.5567C59.8745 34.5186 67.1585 41.9963 69.9937 51C69.9951 50.9901 69.9979 50.9781 70.0007 50.9662C70.0021 50.9781 70.0063 50.9901 70.0077 51C72.8443 41.9963 80.1269 34.5186 90.3483 33.5567C94.6206 33.1548 99.2922 33.4592 102.543 34.5694C98.6212 24.3938 110.637 15.6607 122.874 18.28C120.279 11.3444 124.521 4.46061 140 2.77249Z" fill="black"/>
</svg>
